Coordinates
version=1
nRows=7
nColumns=40
inDegrees=yes

Units are S.I. units (second, meters, Newtons, ...)
Angles are in degrees.

endheader
time	pelvis_tilt	pelvis_list	pelvis_rotation	pelvis_tx	pelvis_ty	pelvis_tz	hip_flexion_r	hip_adduction_r	hip_rotation_r	knee_angle_r	knee_angle_r_beta	ankle_angle_r	subtalar_angle_r	mtp_angle_r	hip_flexion_l	hip_adduction_l	hip_rotation_l	knee_angle_l	knee_angle_l_beta	ankle_angle_l	subtalar_angle_l	mtp_angle_l	lumbar_extension	lumbar_bending	lumbar_rotation	arm_flex_r	arm_add_r	arm_rot_r	elbow_flex_r	pro_sup_r	wrist_flex_r	wrist_dev_r	arm_flex_l	arm_add_l	arm_rot_l	elbow_flex_l	pro_sup_l	wrist_flex_l	wrist_dev_l
     57.52000000	     -3.44596878	     -4.30194432	     -0.42706280	      1.13332166	      0.92940649	      0.44156537	     26.45492904	     -4.87352894	     -3.13402400	     68.79296516	     68.79296516	     -3.94474770	    -12.35391485	     -2.41859089	     17.62629117	     -5.99060980	     -6.14993996	     25.67364043	     25.67364043	     13.21411131	    -16.51108533	      5.51762480	    -10.97201037	      5.66146976	      1.62009097	      0.29476068	    -17.03726367	    -10.52219572	     34.97617697	     45.91556633	      0.00000000	      0.00000000	      1.21311899	    -14.88510260	     -2.45161786	     56.46483872	     46.81170798	      0.00000000	      0.00000000
     57.53328571	     -3.55168262	     -4.30202739	     -0.72511261	      1.13237280	      0.93036750	      0.44157590	     27.54489189	     -5.17028743	     -3.68399296	     68.10754517	     68.10754517	     -3.30011644	    -14.67764304	     -2.10179962	     16.97525662	     -5.98140549	     -6.39520748	     24.97945408	     24.97945408	     13.31036022	    -16.43732357	      5.66346868	    -11.02481017	      5.68704766	      1.42847428	      0.04255859	    -16.79071577	    -10.48295183	     34.79059184	     45.91875886	      0.00000000	      0.00000000	      1.49582287	    -14.89855047	     -2.44238528	     56.65600745	     46.81672908	      0.00000000	      0.00000000
     57.54657143	     -3.54588991	     -4.37136851	     -1.16792088	      1.13150604	      0.93156064	      0.44189579	     28.42283960	     -5.15097861	     -3.96708974	     67.16583755	     67.16583755	     -2.64287819	    -17.10793559	     -1.35061034	     16.16511872	     -6.08809499	     -6.77766420	     24.26331819	     24.26331819	     13.34471660	    -16.42236773	      5.80179315	    -11.24282794	      5.76891594	      1.44751207	     -0.08909547	    -16.63083552	    -10.48075660	     34.50230829	     45.93001868	      0.00000000	      0.00000000	      1.66663433	    -14.92046336	     -2.37415572	     56.99680667	     46.81884343	      0.00000000	      0.00000000
     57.55985714	     -3.65224308	     -4.41915368	     -1.48689153	      1.13055466	      0.93240625	      0.44198791	     29.31943982	     -5.47850705	     -4.67591788	     66.06309236	     66.06309236	     -1.73058559	    -18.28266216	     -0.73213064	     15.57089611	     -6.14036222	     -7.04502568	     23.66218651	     23.66218651	     13.42721850	    -16.35010081	      5.87024176	    -11.32402266	      5.84710064	      1.32045323	     -0.26147277	    -16.43206470	    -10.47088193	     34.32344216	     45.93547293	      0.00000000	      0.00000000	      1.86756057	    -14.95437867	     -2.32580284	     57.27538272	     46.82129898	      0.00000000	      0.00000000
     57.57314286	     -3.64354987	     -4.48920613	     -1.88691591	      1.12971509	      0.93347166	      0.44246909	     30.23828701	     -5.44202490	     -4.96561968	     65.13082833	     65.13082833	      1.42812223	    -18.43210467	      7.11082231	     14.71533307	     -6.23260424	     -7.41768185	     22.81986309	     22.81986309	     13.17678310	    -16.37204275	      5.31263068	    -11.53064194	      5.90164230	      1.12098421	      0.08593699	    -16.13168179	    -10.87768205	     33.31262918	     46.01041641	      0.00000000	      0.00000000	      1.56274747	    -15.36170609	     -1.69248570	     58.68799077	     46.80400595	      0.00000000	      0.00000000
     57.58642857	     -3.71272785	     -4.54802760	     -2.24359730	      1.12885055	      0.93433013	      0.44285977	     30.83279301	     -5.61637471	     -5.54137924	     63.37740556	     63.37740556	      2.33598110	    -18.77090561	      7.64044582	     14.03974075	     -6.30367095	     -7.73645798	     22.14712022	     22.14712022	     13.22487973	    -16.28207976	      5.42334550	    -11.64627097	      5.99636898	      1.07099562	     -0.02715786	    -15.99539803	    -10.88968098	     33.24747079	     46.01318678	      0.00000000	      0.00000000	      1.75492463	    -15.34593106	     -1.68675348	     58.92400876	     46.81121410	      0.00000000	      0.00000000
     57.59971429	     -3.79825377	     -4.66622941	     -2.62324009	      1.12786263	      0.93503511	      0.44358560	     31.41209555	     -5.51209145	     -5.87514740	     61.43045821	     61.43045821	      3.84778395	    -18.78002795	     10.43942138	     13.42168383	     -6.46205449	     -8.05216685	     21.51904470	     21.51904470	     13.12963448	    -16.31919092	      5.12558397	    -11.79417192	      6.10077403	      1.03561981	     -0.00659252	    -15.79255750	    -11.07028906	     33.29665719	     46.02503631	      0.00000000	      0.00000000	      1.69072746	    -15.55656486	     -1.43953988	     59.82749257	     46.82171683	      0.00000000	      0.00000000
